<?xml version="1.0" encoding="utf-8"?><svg xmlns="http://www.w3.org/2000/svg" xmlns:xlink="http://www.w3.org/1999/xlink"><symbol viewBox="0 0 70 70" id="arrow-left" xmlns="http://www.w3.org/2000/svg"><path d="M43.896 11.9 24.879 30.917c-2.246 2.245-2.246 5.92 0 8.166L43.896 58.1"/></symbol><symbol viewBox="0 0 70 70" id="arrow-right" xmlns="http://www.w3.org/2000/svg"><path d="m26.104 11.9 19.017 19.017c2.246 2.245 2.246 5.92 0 8.166L26.104 58.1"/></symbol><symbol viewBox="0 0 28 28" id="burger" xmlns="http://www.w3.org/2000/svg"><path fill-rule="evenodd" clip-rule="evenodd" d="M2.333 7c0-.645.522-1.167 1.167-1.167h21a1.167 1.167 0 0 1 0 2.333h-21A1.167 1.167 0 0 1 2.333 7Zm0 7c0-.645.522-1.167 1.167-1.167h21a1.167 1.167 0 0 1 0 2.333h-21A1.167 1.167 0 0 1 2.333 14Zm0 7c0-.645.522-1.167 1.167-1.167h21a1.167 1.167 0 0 1 0 2.333h-21A1.167 1.167 0 0 1 2.333 21Z"/></symbol><symbol viewBox="0 0 24 24" id="close" xmlns="http://www.w3.org/2000/svg"><path d="m17.912 5.03-5.913 5.913L6.086 5.03a.749.749 0 0 0-1.057 1.057L10.939 12l-5.912 5.912a.749.749 0 1 0 1.058 1.059l5.914-5.912 5.913 5.913a.748.748 0 0 0 1.058-1.057l-5.913-5.913 5.912-5.915a.746.746 0 0 0 .014-1.07.749.749 0 0 0-1.071.011v.002Z"/></symbol><symbol viewBox="0 0 83 58" id="comma" xmlns="http://www.w3.org/2000/svg"><path d="M20.134 58c-3.425 0-6.506-.606-9.245-1.819-2.603-1.347-4.657-3.166-6.164-5.456-1.37-2.021-2.534-4.581-3.492-7.68C.41 39.812 0 36.376 0 32.74c0-6.737 1.712-13.001 5.136-18.795C8.697 8.016 14.176 3.368 21.572 0l1.849 3.638c-3.698 1.616-6.985 4.041-9.862 7.275-2.876 3.099-4.725 6.4-5.547 9.902-.958 3.368-1.095 6.602-.41 9.7 3.287-3.637 7.806-5.456 13.559-5.456 5.067 0 9.176 1.415 12.327 4.244 3.15 2.83 4.725 6.871 4.725 12.126 0 4.984-1.712 9.026-5.136 12.125C29.79 56.518 25.475 58 20.134 58Zm44.787 0c-3.424 0-6.506-.606-9.245-1.819-2.603-1.347-4.657-3.166-6.164-5.456-1.37-2.021-2.533-4.581-3.492-7.68-.822-3.233-1.233-6.669-1.233-10.306 0-6.737 1.712-13.001 5.136-18.795C53.484 8.016 58.963 3.368 66.36 0l1.849 3.638c-3.698 1.616-6.985 4.041-9.861 7.275-2.877 3.099-4.726 6.4-5.547 9.902-.96 3.368-1.096 6.602-.411 9.7 3.287-3.637 7.807-5.456 13.56-5.456 5.067 0 9.176 1.415 12.326 4.244C81.425 32.133 83 36.174 83 41.43c0 4.984-1.712 9.026-5.136 12.125C74.577 56.518 70.262 58 64.92 58Z"/></symbol><symbol viewBox="0 0 24 24" id="phone" xmlns="http://www.w3.org/2000/svg"><path d="M21.97 18.33c0 .36-.08.73-.25 1.09-.17.36-.39.7-.68 1.02-.49.54-1.03.93-1.64 1.18-.6.25-1.25.38-1.95.38-1.02 0-2.11-.24-3.26-.73s-2.3-1.15-3.44-1.98a28.75 28.75 0 0 1-3.28-2.8 28.414 28.414 0 0 1-2.79-3.27c-.82-1.14-1.48-2.28-1.96-3.41C2.24 8.67 2 7.58 2 6.54c0-.68.12-1.33.36-1.93.24-.61.62-1.17 1.15-1.67C4.15 2.31 4.85 2 5.59 2c.28 0 .56.06.81.18.26.12.49.3.67.56l2.32 3.27c.18.25.31.48.4.7.09.21.14.42.14.61 0 .24-.07.48-.21.71-.13.23-.32.47-.56.71l-.76.79c-.11.11-.16.24-.16.4 0 .08.01.15.03.23.03.08.06.14.08.2.18.33.49.76.93 1.28.45.52.93 1.05 1.45 1.58.54.53 1.06 1.02 1.59 1.47.52.44.95.74 1.29.92.05.02.11.05.18.08.08.03.16.04.25.04.17 0 .3-.06.41-.17l.76-.75c.25-.25.49-.44.72-.56.23-.14.46-.21.71-.21.19 0 .39.04.61.13.22.09.45.22.7.39l3.31 2.35c.26.18.44.39.55.64.1.25.16.5.16.78ZM18.5 9c0-.6-.47-1.52-1.17-2.27-.64-.69-1.49-1.23-2.33-1.23M22 9c0-3.87-3.13-7-7-7"/></symbol></svg>